<svg class="icon" viewBox="0 0 1024 1024" xmlns="http://www.w3.org/2000/svg" width="200" height="200"><path d="M512 958.326c247.255 0 447.696-200.44 447.696-447.696S759.256 62.933 512 62.933 64.304 263.374 64.304 510.63 264.744 958.326 512 958.326zm0-740.644c35.321 0 63.957 28.635 63.957 63.956 0 35.324-28.636 63.957-63.957 63.957s-63.957-28.633-63.957-63.957c0-35.321 28.636-63.956 63.957-63.956zM448.043 510.63c0-35.322 28.636-63.957 63.957-63.957s63.957 28.635 63.957 63.957v223.848c0 35.324-28.636 63.957-63.957 63.957s-63.957-28.633-63.957-63.957V510.63z" fill="#6F6E7E"/></svg>