<svg width="160" height="100" viewBox="0 0 160 100" fill="none" xmlns="http://www.w3.org/2000/svg">
<path d="M0 32C0 20.7989 0 15.1984 2.17987 10.9202C4.09734 7.15695 7.15695 4.09734 10.9202 2.17987C15.1984 0 20.7989 0 32 0H80V100H32C20.7989 100 15.1984 100 10.9202 97.8201C7.15695 95.9027 4.09734 92.8431 2.17987 89.0798C0 84.8016 0 79.2011 0 68V32Z" fill="#4E4A4A"/>
<path d="M25.6 57.5814C25.6 46.3804 25.6 40.7798 27.7798 36.5016C29.6973 32.7384 32.7569 29.6787 36.5202 27.7613C40.7984 25.5814 46.3989 25.5814 57.6 25.5814H80V100H25.6V57.5814Z" fill="#0F0F0F"/>
<path d="M80 0H128.2C139.212 0 144.719 0 148.94 2.10911C152.814 4.04497 155.955 7.18616 157.891 11.0604C160 15.2814 160 20.7876 160 31.8V68.2C160 79.2124 160 84.7186 157.891 88.9396C155.955 92.8138 152.814 95.955 148.94 97.8909C144.719 100 139.212 100 128.2 100H80V0Z" fill="#D9D9D9"/>
<path d="M105.6 57.7814C105.6 46.3916 105.6 40.6967 107.852 36.3619C109.749 32.7091 112.728 29.7306 116.38 27.8331C120.715 25.5814 126.41 25.5814 137.8 25.5814H160V67.8C160 79.1898 160 84.8847 157.748 89.2195C155.851 92.8724 152.872 95.8508 149.219 97.7483C144.885 100 139.19 100 127.8 100H105.6V57.7814Z" fill="white"/>
<path d="M127.316 45.7588L121.566 56.04H128.925L127.378 45.7588H127.316ZM130.206 64.8838L129.284 58.4306H120.238L116.581 64.8838H113.488L126.55 42.3369H129.378L132.878 64.8838H130.206ZM141.034 62.8525C141.816 62.8525 142.54 62.6963 143.206 62.3838C143.873 62.0713 144.441 61.639 144.909 61.0869C145.378 60.5348 145.691 59.8994 145.847 59.1806L146.253 57.3681L141.816 57.6025C140.597 57.665 139.649 57.9358 138.972 58.415C138.305 58.8942 137.972 59.5452 137.972 60.3681C137.972 61.1286 138.253 61.7327 138.816 62.1806C139.389 62.6286 140.128 62.8525 141.034 62.8525ZM140.316 65.165C139.389 65.165 138.534 64.9723 137.753 64.5869C136.982 64.2015 136.368 63.6702 135.909 62.9931C135.451 62.3161 135.222 61.5348 135.222 60.6494C135.222 59.0556 135.805 57.8161 136.972 56.9306C138.149 56.0452 139.774 55.5504 141.847 55.4463L146.706 55.1963L146.925 54.1806C146.956 54.0452 146.972 53.915 146.972 53.79C146.982 53.6546 146.988 53.5192 146.988 53.3838C146.988 52.5713 146.712 51.9306 146.159 51.4619C145.607 50.9827 144.805 50.7431 143.753 50.7431C143.024 50.7431 142.389 50.8577 141.847 51.0869C141.316 51.3056 140.889 51.6129 140.566 52.0088C140.253 52.3942 140.04 52.8473 139.925 53.3681H137.081C137.248 52.389 137.633 51.5244 138.238 50.7744C138.852 50.0244 139.644 49.4358 140.613 49.0088C141.592 48.5713 142.712 48.3525 143.972 48.3525C145.128 48.3525 146.133 48.5504 146.988 48.9463C147.852 49.3421 148.524 49.889 149.003 50.5869C149.482 51.2744 149.722 52.0765 149.722 52.9931C149.722 53.2536 149.712 53.5036 149.691 53.7431C149.67 53.9723 149.644 54.1806 149.613 54.3681L147.378 64.8838H144.769L145.191 62.8994H145.144C144.779 63.3577 144.347 63.7588 143.847 64.1025C143.347 64.4463 142.8 64.7067 142.206 64.8838C141.613 65.0713 140.982 65.165 140.316 65.165Z" fill="black"/>
<path d="M47.3157 45.7588L41.5657 56.04H48.925L47.3782 45.7588H47.3157ZM50.2063 64.8838L49.2844 58.4306H40.2375L36.5813 64.8838H33.4875L46.55 42.3369H49.3782L52.8782 64.8838H50.2063ZM61.0344 62.8525C61.8157 62.8525 62.5396 62.6963 63.2063 62.3838C63.873 62.0713 64.4407 61.639 64.9094 61.0869C65.3782 60.5348 65.6907 59.8994 65.8469 59.1806L66.2532 57.3681L61.8157 57.6025C60.5969 57.665 59.649 57.9358 58.9719 58.415C58.3053 58.8942 57.9719 59.5452 57.9719 60.3681C57.9719 61.1286 58.2532 61.7327 58.8157 62.1806C59.3886 62.6286 60.1282 62.8525 61.0344 62.8525ZM60.3157 65.165C59.3886 65.165 58.5344 64.9723 57.7532 64.5869C56.9823 64.2015 56.3678 63.6702 55.9094 62.9931C55.4511 62.3161 55.2219 61.5348 55.2219 60.6494C55.2219 59.0556 55.8053 57.8161 56.9719 56.9306C58.149 56.0452 59.774 55.5504 61.8469 55.4463L66.7063 55.1963L66.925 54.1806C66.9563 54.0452 66.9719 53.915 66.9719 53.79C66.9823 53.6546 66.9875 53.5192 66.9875 53.3838C66.9875 52.5713 66.7115 51.9306 66.1594 51.4619C65.6073 50.9827 64.8053 50.7431 63.7532 50.7431C63.024 50.7431 62.3886 50.8577 61.8469 51.0869C61.3157 51.3056 60.8886 51.6129 60.5657 52.0088C60.2532 52.3942 60.0396 52.8473 59.925 53.3681H57.0813C57.248 52.389 57.6334 51.5244 58.2375 50.7744C58.8521 50.0244 59.6438 49.4358 60.6125 49.0088C61.5917 48.5713 62.7115 48.3525 63.9719 48.3525C65.1282 48.3525 66.1334 48.5504 66.9875 48.9463C67.8521 49.3421 68.524 49.889 69.0032 50.5869C69.4823 51.2744 69.7219 52.0765 69.7219 52.9931C69.7219 53.2536 69.7115 53.5036 69.6907 53.7431C69.6698 53.9723 69.6438 54.1806 69.6125 54.3681L67.3782 64.8838H64.7688L65.1907 62.8994H65.1438C64.7792 63.3577 64.3469 63.7588 63.8469 64.1025C63.3469 64.4463 62.8 64.7067 62.2063 64.8838C61.6125 65.0713 60.9823 65.165 60.3157 65.165Z" fill="white"/>
</svg>
