<svg xmlns="http://www.w3.org/2000/svg" viewBox="0 0 82 52"><defs><style>.cls-1{fill:#4e4a4a;}.cls-2{fill:#1a1a1a;}.cls-3{fill:#333;}.cls-4,.cls-8{font-size:14px;font-family:ArialMT, Arial;}.cls-4{fill:#f2f2f2;}.cls-5{fill:#d9d9d9;}.cls-6{fill:#fff;}.cls-7{fill:#999;}.cls-9{fill:gray;}</style></defs><g id="Layer_2" data-name="Layer 2"><g id="Layer_3" data-name="Layer 3"><g id="fill"><rect class="cls-1" x="1" y="1" width="80" height="50" rx="8"/></g><g id="small"><path class="cls-2" d="M14,51.5a.5.5,0,0,1-.5-.5V25A8.51,8.51,0,0,1,22,16.5H41a.5.5,0,0,1,.5.5V51a.5.5,0,0,1-.5.5Z"/><path class="cls-3" d="M41,17V51H14V25a8,8,0,0,1,8-8H41m0-1H22a9,9,0,0,0-9,9V51a1,1,0,0,0,1,1H41a1,1,0,0,0,1-1V17a1,1,0,0,0-1-1Z"/></g><text class="cls-4" transform="translate(20.38 30.87)">Aa</text><path id="lgihtfill" class="cls-5" d="M41,1H73a8,8,0,0,1,8,8V43a8,8,0,0,1-8,8H41a0,0,0,0,1,0,0V1A0,0,0,0,1,41,1Z"/><g id="small-2" data-name="small"><path class="cls-6" d="M54,51.5a.5.5,0,0,1-.5-.5V26A9.51,9.51,0,0,1,63,16.5H81a.5.5,0,0,1,.5.5V43A8.51,8.51,0,0,1,73,51.5Z"/><path class="cls-7" d="M81,17V43a8,8,0,0,1-8,8H54V26a9,9,0,0,1,9-9H81m0-1H63A10,10,0,0,0,53,26V51a1,1,0,0,0,1,1H73a9,9,0,0,0,9-9V17a1,1,0,0,0-1-1Z"/></g><text id="lightAa" class="cls-8" transform="translate(60.38 30.87)">Aa</text><g id="stroke"><path class="cls-9" d="M73,1a8,8,0,0,1,8,8V43a8,8,0,0,1-8,8H9a8,8,0,0,1-8-8V9A8,8,0,0,1,9,1H73m0-1H9A9,9,0,0,0,0,9V43a9,9,0,0,0,9,9H73a9,9,0,0,0,9-9V9a9,9,0,0,0-9-9Z"/></g></g></g></svg>