<svg width="160" height="100" viewBox="0 0 160 100" fill="none" xmlns="http://www.w3.org/2000/svg">
<path d="M0 32C0 20.7989 0 15.1984 2.17987 10.9202C4.09734 7.15695 7.15695 4.09734 10.9202 2.17987C15.1984 0 20.7989 0 32 0H128C139.201 0 144.802 0 149.08 2.17987C152.843 4.09734 155.903 7.15695 157.82 10.9202C160 15.1984 160 20.7989 160 32V68C160 79.2011 160 84.8016 157.82 89.0798C155.903 92.8431 152.843 95.9027 149.08 97.8201C144.802 100 139.201 100 128 100H32C20.7989 100 15.1984 100 10.9202 97.8201C7.15695 95.9027 4.09734 92.8431 2.17987 89.0798C0 84.8016 0 79.2011 0 68V32Z" fill="#4E4A4A"/>
<path d="M51.2 57.5814C51.2 46.3803 51.2 40.7798 53.3799 36.5016C55.2973 32.7383 58.357 29.6787 62.1202 27.7613C66.3984 25.5814 71.999 25.5814 83.2 25.5814H160V68C160 79.201 160 84.8016 157.82 89.0798C155.903 92.843 152.843 95.9027 149.08 97.8201C144.802 100 139.201 100 128 100H51.2V57.5814Z" fill="#0F0F0F"/>
<path d="M88.9156 45.7587L83.1656 56.04H90.525L88.9781 45.7587H88.9156ZM91.8063 64.8837L90.8844 58.4306H81.8375L78.1813 64.8837H75.0875L88.15 42.3369H90.9781L94.4781 64.8837H91.8063ZM102.634 62.8525C103.416 62.8525 104.14 62.6962 104.806 62.3837C105.473 62.0712 106.041 61.6389 106.509 61.0869C106.978 60.5348 107.291 59.8994 107.447 59.1806L107.853 57.3681L103.416 57.6025C102.197 57.665 101.249 57.9358 100.572 58.415C99.9052 58.8941 99.5719 59.5452 99.5719 60.3681C99.5719 61.1285 99.8531 61.7327 100.416 62.1806C100.989 62.6285 101.728 62.8525 102.634 62.8525ZM101.916 65.165C100.989 65.165 100.134 64.9723 99.3531 64.5869C98.5823 64.2014 97.9677 63.6702 97.5094 62.9931C97.0511 62.316 96.8219 61.5348 96.8219 60.6494C96.8219 59.0556 97.4052 57.816 98.5719 56.9306C99.749 56.0452 101.374 55.5504 103.447 55.4462L108.306 55.1962L108.525 54.1806C108.556 54.0452 108.572 53.915 108.572 53.79C108.582 53.6546 108.588 53.5191 108.588 53.3837C108.588 52.5712 108.311 51.9306 107.759 51.4619C107.207 50.9827 106.405 50.7431 105.353 50.7431C104.624 50.7431 103.989 50.8577 103.447 51.0869C102.916 51.3056 102.489 51.6129 102.166 52.0087C101.853 52.3941 101.64 52.8473 101.525 53.3681H98.6813C98.8479 52.3889 99.2334 51.5244 99.8375 50.7744C100.452 50.0244 101.244 49.4358 102.213 49.0087C103.192 48.5712 104.311 48.3525 105.572 48.3525C106.728 48.3525 107.733 48.5504 108.588 48.9462C109.452 49.3421 110.124 49.8889 110.603 50.5869C111.082 51.2744 111.322 52.0764 111.322 52.9931C111.322 53.2535 111.311 53.5035 111.291 53.7431C111.27 53.9723 111.244 54.1806 111.213 54.3681L108.978 64.8837H106.369L106.791 62.8994H106.744C106.379 63.3577 105.947 63.7587 105.447 64.1025C104.947 64.4462 104.4 64.7066 103.806 64.8837C103.213 65.0712 102.582 65.165 101.916 65.165Z" fill="white"/>
</svg>
