<svg xmlns="http://www.w3.org/2000/svg" viewBox="0 0 82 52"><defs><style>.cls-1{fill:#4e4a4a;}.cls-2{fill:#1a1a1a;}.cls-3{fill:#333;}.cls-4{fill:gray;}.cls-5{font-size:14px;fill:#f2f2f2;font-family:ArialMT, Arial;}</style></defs><g id="Layer_2" data-name="Layer 2"><g id="Layer_2-2" data-name="Layer 2"><g id="fill"><rect class="cls-1" x="1" y="1" width="80" height="50" rx="8"/></g><g id="small"><path class="cls-2" d="M29,51.5a.5.5,0,0,1-.5-.5V25A8.51,8.51,0,0,1,37,16.5H81a.5.5,0,0,1,.5.5V43A8.51,8.51,0,0,1,73,51.5Z"/><path class="cls-3" d="M81,17V43a8,8,0,0,1-8,8H29V25a8,8,0,0,1,8-8H81m0-1H37a9,9,0,0,0-9,9V51a1,1,0,0,0,1,1H73a9,9,0,0,0,9-9V17a1,1,0,0,0-1-1Z"/></g><g id="stroke"><path class="cls-4" d="M73,1a8,8,0,0,1,8,8V43a8,8,0,0,1-8,8H9a8,8,0,0,1-8-8V9A8,8,0,0,1,9,1H73m0-1H9A9,9,0,0,0,0,9V43a9,9,0,0,0,9,9H73a9,9,0,0,0,9-9V9a9,9,0,0,0-9-9Z"/></g><text class="cls-5" transform="translate(37.38 30.87)">Aa</text></g></g></svg>