<svg width="200" height="200" viewBox="0 0 200 200" fill="none" xmlns="http://www.w3.org/2000/svg">
<path d="M71.75 93C76.9167 93 79.5 95.5833 79.5 100.75C79.5 105.917 76.9167 108.5 71.75 108.5C66.5833 108.5 64 105.917 64 100.75C64 95.5833 66.5833 93 71.75 93Z" fill="#5B5555"/>
<path d="M99.75 93C104.917 93 107.5 95.5833 107.5 100.75C107.5 105.917 104.917 108.5 99.75 108.5C94.5833 108.5 92 105.917 92 100.75C92 95.5833 94.5833 93 99.75 93Z" fill="#5B5555"/>
<path d="M127.75 93C132.917 93 135.5 95.5833 135.5 100.75C135.5 105.917 132.917 108.5 127.75 108.5C122.583 108.5 120 105.917 120 100.75C120 95.5833 122.583 93 127.75 93Z" fill="#5B5555"/>
<circle cx="100" cy="100" r="85" stroke="#5B5555" stroke-width="30"/>
</svg>
