<?xml version="1.0" standalone="no"?><!DOCTYPE svg PUBLIC "-//W3C//DTD SVG 1.1//EN" "http://www.w3.org/Graphics/SVG/1.1/DTD/svg11.dtd"><svg t="1683638809201" class="icon" viewBox="0 0 1024 1024" version="1.1" xmlns="http://www.w3.org/2000/svg" p-id="6926" xmlns:xlink="http://www.w3.org/1999/xlink" width="200" height="200"><path d="M1022.400577 187.303249A186.658679 186.658679 0 0 0 835.764124 1.244688H186.637341A186.658679 186.658679 0 0 0 0.000889 188.503484l1.578086 495.296737c0.333398 102.864535 83.794144 184.25821 186.658679 184.258211h184.347116l87.172582 126.802543c11.757852 16.892188 31.028282 27.849884 51.587853 27.894337 20.559571 0.044453 39.852228-11.291094 51.698987-28.116602l88.21723-126.580278h186.103015c49.587463 0 97.152308-17.936837 132.181372-53.054807a184.547155 184.547155 0 0 0 54.45508-131.492349l-1.600312-496.208027zM497.964814 729.27577c-38.829806 0-65.212737-28.58336-65.212737-66.67969 0-38.852033 27.116407-66.701917 65.212737-66.701917 39.585509 0 65.25719 27.849884 65.96844 66.701917 0 38.074103-26.382931 66.67969-65.96844 66.67969z m94.440668-312.861106c-29.583556 32.784181-35.962579 63.990276-35.96258 99.997309a48.453908 48.453908 0 0 1-48.431681 48.453908h-19.937227a48.453908 48.453908 0 0 1-48.431682-47.698205l-0.06668-5.178789c-2.400469-40.80797 11.202188-83.349613 47.186994-126.535825 25.605001-30.428165 46.409064-56.522151 46.409065-83.727465 0-28.00547-18.403594-46.653556-58.389182-48.253869-12.202383 0-25.605001 2.044844-38.563088 5.645548a45.631135 45.631135 0 0 1-26.627423-87.217035 295.50216 295.50216 0 0 1 92.373598-14.625079c105.598402 0 156.052701 58.389182 156.052701 124.802153-0.022227 60.722971-35.18465 100.730785-65.612815 134.337349z" p-id="6927" fill="#8a8a8a"></path></svg>