<?xml version="1.0" standalone="no"?><!DOCTYPE svg PUBLIC "-//W3C//DTD SVG 1.1//EN" "http://www.w3.org/Graphics/SVG/1.1/DTD/svg11.dtd"><svg t="1682776869330" class="icon" viewBox="0 0 1280 1024" version="1.1" xmlns="http://www.w3.org/2000/svg" p-id="2782" xmlns:xlink="http://www.w3.org/1999/xlink" width="250" height="200"><path d="M1162.24 192.4c-55.34-0.3-105 35.16-153.2 53.24C979.96 176.54 911.66 128 832 128c-22.56 0-43.9 4.6-64 11.76V112c0-26.52-21.5-48-48-48h-32c-26.5 0-48 21.48-48 48v97.96C572.02 159.16 482.48 128 384 128 171.92 128 0 271.28 0 448v480c0 17.68 14.32 32 32 32h128c17.68 0 32-14.32 32-32v-141.58C256.7 815.14 333.44 832 416 832s159.3-16.86 224-45.58V928c0 17.68 14.32 32 32 32h128c17.68 0 32-14.32 32-32V576h256v64c0 17.68 14.32 32 32 32h64c17.68 0 32-14.32 32-32v-64c35.34 0 64-28.66 64-64v-184.04c0-68.18-49.58-135.18-117.76-135.56zM896 352c-17.68 0-32-14.32-32-32s14.32-32 32-32 32 14.32 32 32-14.32 32-32 32z" p-id="2783" fill="#6F6E7E"></path></svg>